# xmcd
#
# Track frame offsets: 
#        150
#        14897
#        33415
#        62704
#        91007
#        111742
#        131954
#        186366
#        202552
#        229521
#
# Disc length: 3449 seconds
#
# Revision: 0
# Processed by: cddbd v1.5.2PL0 Copyright (c) Steve Scherf et al.
# Submitted via: ExactAudioCopy v1.0b4
#
DISCID=890d770a
DTITLE=Grüßaugust - Grüßaugust
DYEAR=2013
DGENRE=Country
TTITLE0=Blue
TTITLE1=Heja
TTITLE2=Parad
TTITLE3=Feels Like Being an Angel
TTITLE4=Märchen
TTITLE5=Execution
TTITLE6=Listen
TTITLE7=Laufen
TTITLE8=Prophecy
TTITLE9=Western
EXTD=
EXTT0=
EXTT1=
EXTT2=
EXTT3=
EXTT4=
EXTT5=
EXTT6=
EXTT7=
EXTT8=
EXTT9=
PLAYORDER=
